HIERARCHY
ROOT Hips
{
	OFFSET 0.000000 0.000000 0.000000
	CHANNELS 6 Xposition Yposition Zposition Yrotation Xrotation Zrotation
	JOINT Chest
	{
		OFFSET 0.000000 -0.009281 11.569106
		CHANNELS 3 Yrotation Xrotation Zrotation
		JOINT Chest2
		{
			OFFSET -0.000000 0.016865 9.269641
			CHANNELS 3 Yrotation Xrotation Zrotation
			JOINT Chest3
			{
				OFFSET -0.000000 0.000001 8.374491
				CHANNELS 3 Yrotation Xrotation Zrotation
				JOINT Chest4
				{
					OFFSET -0.000000 0.000001 8.374493
					CHANNELS 3 Yrotation Xrotation Zrotation
					JOINT Neck
					{
						OFFSET -0.000000 0.000002 12.152554
						CHANNELS 3 Yrotation Xrotation Zrotation
						JOINT Head
						{
							OFFSET -0.000000 0.040101 7.802319
							CHANNELS 3 Yrotation Xrotation Zrotation
							End Site
							{
								OFFSET -0.000000 0.020947 14.853096
							}
						}
					}
					JOINT RightCollar
					{
						OFFSET 2.894404 0.000001 6.791374
						CHANNELS 3 Yrotation Xrotation Zrotation
						JOINT RightShoulder
						{
							OFFSET 13.574684 0.000001 0.000000
							CHANNELS 3 Yrotation Xrotation Zrotation
							JOINT RightElbow
							{
								OFFSET 23.923903 0.000002 0.000000
								CHANNELS 3 Yrotation Xrotation Zrotation
								JOINT RightWrist
								{
									OFFSET 19.846718 0.012767 0.000000
									CHANNELS 3 Yrotation Xrotation Zrotation
									End Site
									{
										OFFSET 14.973145 0.000001 0.000000
									}
								}
							}
						}
					}
					JOINT LeftCollar
					{
						OFFSET -2.894404 0.000001 6.791374
						CHANNELS 3 Yrotation Xrotation Zrotation
						JOINT LeftShoulder
						{
							OFFSET -13.574684 -0.000001 0.000000
							CHANNELS 3 Yrotation Xrotation Zrotation
							JOINT LeftElbow
							{
								OFFSET -23.923903 -0.000002 0.000000
								CHANNELS 3 Yrotation Xrotation Zrotation
								JOINT LeftWrist
								{
									OFFSET -19.846718 0.012763 0.000000
									CHANNELS 3 Yrotation Xrotation Zrotation
									End Site
									{
										OFFSET -14.973145 -0.000001 0.000000
									}
								}
							}
						}
					}
				}
			}
		}
	}
	JOINT RightHip
	{
		OFFSET 9.469263 0.004643 0.045487
		CHANNELS 3 Yrotation Xrotation Zrotation
		JOINT RightKnee
		{
			OFFSET 0.000000 0.002661 -40.478676
			CHANNELS 3 Yrotation Xrotation Zrotation
			JOINT RightAnkle
			{
				OFFSET 0.000000 0.049106 -35.224068
				CHANNELS 3 Yrotation Xrotation Zrotation
				JOINT RightToe
				{
					OFFSET -0.000001 12.539529 -6.151390
					CHANNELS 3 Yrotation Xrotation Zrotation
					End Site
					{
						OFFSET -0.000001 5.044994 -1.291870
					}
				}
			}
		}
	}
	JOINT LeftHip
	{
		OFFSET -9.469263 0.004641 0.045487
		CHANNELS 3 Yrotation Xrotation Zrotation
		JOINT LeftKnee
		{
			OFFSET 0.000000 0.002661 -40.478676
			CHANNELS 3 Yrotation Xrotation Zrotation
			JOINT LeftAnkle
			{
				OFFSET 0.000000 0.049106 -35.224068
				CHANNELS 3 Yrotation Xrotation Zrotation
				JOINT LeftToe
				{
					OFFSET -0.000001 12.539529 -6.151390
					CHANNELS 3 Yrotation Xrotation Zrotation
					End Site
					{
						OFFSET -0.000001 5.044994 -1.291870
					}
				}
			}
		}
	}
}
MOTION
Frames: 15
Frame Time: 0.016667
-0.111726 -29.794086 83.324043 -2.567716 -0.775605 -115.045958 -1.552240 -4.352402 2.130230 -0.590880 -1.959729 0.973060 -0.590880 -1.959729 0.973059 -0.439997 -1.470744 0.727831 1.186817 -12.924491 -3.379563 0.860344 12.163102 -5.930342 10.643477 6.453295 -0.751636 43.637057 -16.607200 -15.483173 -29.489304 -60.639096 86.720576 -46.497360 42.673567 50.542980 -8.069370 5.621987 -6.553896 -41.612333 -8.946912 20.787150 -6.045731 -64.783600 -56.339413 32.984479 20.326255 -74.644665 -3.173134 4.174295 2.937557 -0.558376 -18.292707 -1.186951 3.019854 7.206466 -6.409763 -0.388089 0.868712 0.102971 2.979497 -1.040099 3.123884 0.105839 -4.637257 5.411266 -1.267902 -0.091886 10.489242 2.191467 -0.909375 -0.077821 
-0.629833 -30.227894 83.244751 -2.541934 -0.804568 -115.266614 -1.487256 -4.327490 2.207670 -0.590766 -1.948752 0.969557 -0.590767 -1.948752 0.969558 -0.439941 -1.462507 0.725214 1.193694 -12.928547 -3.385184 0.871252 12.155712 -5.938070 10.614473 6.379181 -0.805181 43.648064 -16.342343 -15.551067 -29.856943 -60.677638 87.032654 -46.492138 42.695540 50.564772 -8.110828 5.617740 -6.503111 -41.530863 -9.035209 20.665830 -6.052844 -64.854716 -56.382286 33.062545 20.326979 -74.652246 -2.674384 4.272081 7.289974 -1.578971 -18.248428 1.194497 3.850618 7.290001 -5.735476 -0.352523 0.807610 0.145025 2.627941 -0.477033 0.442501 0.447176 -4.647062 3.615880 -2.882166 0.216870 10.261661 3.047362 -1.107886 -0.048878 
-1.289272 -30.745401 83.155563 -2.547842 -0.798260 -115.403450 -1.458256 -4.311232 2.225028 -0.595331 -1.945487 0.953858 -0.595331 -1.945487 0.953860 -0.443419 -1.460049 0.713430 1.198049 -12.931101 -3.387701 0.878588 12.151075 -5.940995 10.565538 6.291244 -0.857260 43.690552 -16.142271 -15.572217 -30.023169 -60.636889 87.135332 -46.464793 42.640017 50.586003 -8.068841 5.513010 -6.498620 -41.469774 -9.022148 20.518404 -6.181217 -64.913175 -56.375688 33.183695 20.268151 -74.608888 -2.199285 4.314804 11.115233 -2.395982 -18.039390 2.883569 4.562958 7.421718 -4.599758 -0.398377 0.606379 0.148148 2.130471 0.033762 -2.207093 0.948723 -4.749843 2.020952 -5.090250 0.446713 8.632369 4.093198 -1.098001 -0.006409 
-1.976570 -31.286861 83.050804 -2.565246 -0.742734 -115.470181 -1.472414 -4.306347 2.191404 -0.608358 -1.935427 0.930543 -0.608358 -1.935427 0.930544 -0.453278 -1.452502 0.695915 1.204028 -12.942303 -3.391448 0.888852 12.130428 -5.945352 10.525684 6.272672 -0.913950 43.787598 -16.114576 -15.611907 -30.023913 -60.456333 87.050064 -46.391707 42.490200 50.607614 -7.985039 5.409800 -6.553884 -41.457401 -9.056880 20.427013 -6.275832 -64.887617 -56.417598 33.342125 20.237115 -74.581267 -1.885164 4.315422 13.903620 -2.865564 -17.638221 3.771405 5.137998 7.667281 -2.990173 -0.542766 0.168535 0.115172 1.621080 0.273615 -4.561801 1.550893 -4.564123 0.159712 -7.830742 0.295761 6.036740 5.213161 -0.889590 0.042828 
-2.540217 -31.849716 82.935249 -2.556734 -0.662309 -115.500958 -1.485418 -4.286616 2.111771 -0.628864 -1.900393 0.906884 -0.628864 -1.900393 0.906883 -0.468784 -1.426233 0.678144 1.208168 -12.981236 -3.391835 0.898121 12.058323 -5.943377 10.493588 6.267080 -0.984864 43.878419 -16.114489 -15.606639 -30.086983 -60.315994 87.018147 -46.307433 42.329677 50.628927 -7.911576 5.334447 -6.601720 -41.412646 -9.160635 20.385593 -6.223772 -64.878601 -56.634057 33.464976 20.285199 -74.492454 -1.669953 4.200953 15.118424 -3.138143 -17.011640 3.989348 5.516635 7.970086 -0.968357 -0.690715 -0.414477 0.141872 1.245000 0.377583 -6.951165 1.970882 -4.302269 -1.821072 -10.636954 -0.069061 3.259805 6.180251 -0.607202 0.083706 
-2.855430 -32.463440 82.828728 -2.656997 -0.599191 -115.454308 -1.506633 -4.367931 1.932258 -0.655908 -1.852782 0.891878 -0.655908 -1.852782 0.891877 -0.489185 -1.390549 0.666863 1.213492 -13.039969 -3.389992 0.911347 11.949567 -5.936169 10.507906 6.332789 -0.994721 43.886513 -16.063234 -15.625624 -30.258394 -60.366100 87.119179 -46.240483 42.246919 50.664048 -7.893227 5.400805 -6.589068 -41.282217 -9.312191 20.399827 -6.285719 -64.988178 -56.774684 33.496962 20.323197 -74.342108 -1.566031 3.556138 14.512086 -3.373748 -15.816608 3.991972 5.531853 8.284300 1.192622 -0.692242 -1.159202 0.121386 0.994657 0.360483 -9.488057 2.129067 -4.253123 -3.265085 -13.059808 -0.558486 0.488895 6.742863 -0.249870 0.119029 
-2.943084 -33.139126 82.744652 -2.755928 -0.491024 -115.502174 -1.569977 -4.430827 1.807986 -0.691854 -1.807815 0.899631 -0.691854 -1.807814 0.899638 -0.516188 -1.356885 0.672626 1.231625 -13.087380 -3.394308 0.945869 11.862177 -5.935720 10.553957 6.502366 -0.979965 43.864298 -16.065939 -15.704855 -30.424238 -60.575288 87.224200 -46.226481 42.274541 50.696563 -7.919959 5.602719 -6.579016 -41.095612 -9.404795 20.457596 -6.674405 -65.187483 -56.617122 33.410246 20.240803 -74.219718 -1.540566 2.715221 12.864919 -3.614793 -14.419965 3.773167 5.240540 8.470587 3.637677 -0.477631 -1.742490 0.026766 0.794394 0.371781 -11.464181 2.226204 -4.392959 -3.884333 -14.761885 -1.222000 -2.204282 6.659062 0.178390 0.143834 
-2.841817 -33.667950 82.690765 -2.952615 -0.364031 -115.585584 -1.710386 -4.596036 1.682169 -0.733169 -1.761776 0.927675 -0.733169 -1.761776 0.927679 -0.547160 -1.322451 0.693592 1.260218 -13.103274 -3.399100 0.998769 11.833677 -5.932694 10.597522 6.599298 -0.947470 43.893408 -16.177189 -15.771460 -30.354689 -60.814891 87.079687 -46.267896 42.376888 50.721016 -7.973411 5.794836 -6.571518 -40.922614 -9.409408 20.497106 -7.083164 -65.354474 -56.378168 33.241120 20.122398 -74.305683 -1.497771 1.843439 11.005184 -4.167848 -13.345835 3.494104 5.267704 8.761803 6.226078 -0.331233 -2.140201 -0.235949 0.600527 0.329816 -12.433413 2.356538 -4.681816 -3.959451 -14.917140 -2.169949 -4.757923 5.398457 0.838390 0.186783 
-2.811975 -34.125587 82.668365 -2.773505 -0.305599 -115.986502 -1.700417 -4.408526 1.827639 -0.760070 -1.739307 0.975830 -0.760070 -1.739308 0.975831 -0.567232 -1.305700 0.729657 1.283148 -13.098057 -3.398844 1.042149 11.844252 -5.922940 10.684060 6.624538 -0.867692 43.945341 -16.410890 -15.854863 -29.930978 -61.045833 86.624298 -46.396314 42.525806 50.698513 -8.105383 6.053409 -6.510210 -40.822869 -9.529791 20.533195 -6.909560 -65.412407 -56.486709 33.024033 20.135732 -74.671911 -1.258804 1.790149 10.209305 -4.369873 -12.965014 3.967709 5.095670 8.820805 7.110669 -0.295143 -2.040574 -0.331776 0.752517 0.618240 -12.195177 2.470819 -4.857171 -3.930677 -13.593411 -3.210580 -6.469558 3.210934 1.562021 0.174080 
-2.960218 -34.542004 82.664337 -2.494378 -0.372802 -116.576330 -1.572732 -4.118333 2.163342 -0.770879 -1.775635 1.020349 -0.770879 -1.775635 1.020355 -0.575149 -1.333020 0.762962 1.290839 -13.053840 -3.387567 1.059616 11.926887 -5.899465 10.737247 6.467572 -0.813412 43.947964 -16.626791 -15.764575 -29.261893 -61.198823 86.106235 -46.610348 42.645440 50.569519 -8.197096 6.233809 -6.397882 -40.879796 -9.652317 20.471928 -5.893141 -65.364207 -57.167932 32.811792 20.382908 -75.102083 -0.908859 2.288010 10.605599 -3.947239 -13.312275 4.708348 4.549525 8.756950 6.477568 -0.360335 -1.625244 -0.226177 1.164076 0.852304 -11.237053 2.538424 -4.798033 -4.329470 -11.066469 -3.511325 -7.088167 0.422147 1.729882 0.051508 
-3.123605 -34.931679 82.660423 -2.515297 -0.487603 -116.955447 -1.548691 -4.126588 2.358739 -0.774893 -1.852168 1.051328 -0.774892 -1.852168 1.051329 -0.577934 -1.390467 0.786078 1.295781 -12.943323 -3.374404 1.070094 12.132524 -5.875108 10.711573 6.268831 -0.888070 43.969196 -16.795860 -15.596006 -28.657438 -61.141921 85.790974 -46.779180 42.646280 50.415378 -8.011979 5.917906 -6.370073 -41.080425 -9.466914 20.157751 -4.718409 -65.182169 -58.012519 32.729905 20.563502 -75.407419 -0.629680 2.493644 11.461551 -3.472571 -13.754270 4.531134 4.313195 8.789815 6.155251 -0.547954 -1.342959 -0.175776 1.397678 0.732766 -10.445058 2.610401 -4.652063 -5.239056 -8.736967 -3.050388 -6.428011 -1.708599 1.318934 -0.092818 
-3.251314 -35.288418 82.643478 -2.660893 -0.573111 -117.083499 -1.610368 -4.271174 2.398729 -0.768005 -1.935686 1.064297 -0.768005 -1.935686 1.064301 -0.572579 -1.453109 0.795716 1.302871 -12.804670 -3.365058 1.082031 12.390355 -5.857785 10.725169 6.183681 -0.932332 44.015972 -16.795951 -15.616674 -28.330475 -60.865824 85.678624 -46.786963 42.502269 50.357513 -7.743092 5.490716 -6.496455 -41.214731 -9.316911 19.854165 -4.180626 -64.947593 -58.448169 32.795744 20.581969 -75.399695 -0.439233 2.447282 12.090685 -3.119511 -14.035256 3.688240 4.388257 8.905524 6.431952 -0.771682 -1.232610 -0.168617 1.330782 0.631577 -10.156855 2.752967 -4.708277 -6.044550 -6.751087 -2.282740 -5.258857 -3.097314 0.698739 -0.164012 
-3.362384 -35.635235 82.629120 -2.755494 -0.584478 -117.055809 -1.664648 -4.352845 2.344043 -0.746614 -1.981191 1.049296 -0.746614 -1.981191 1.049298 -0.556505 -1.487183 0.784476 1.295070 -12.718094 -3.347110 1.071292 12.551181 -5.828994 10.712065 6.069802 -0.956759 44.062841 -16.525363 -15.703993 -28.518451 -60.530748 85.871536 -46.635193 42.303644 50.430394 -7.604583 5.312995 -6.572785 -41.164853 -9.483654 19.678852 -4.576991 -64.841329 -58.197412 32.958863 20.476222 -75.108865 -0.308191 2.369117 12.146949 -2.867576 -14.133423 2.970260 4.554429 9.053692 6.808053 -0.981762 -1.231144 -0.145413 1.144128 0.677984 -10.003117 2.898934 -4.762765 -6.191957 -5.032545 -1.659712 -4.786083 -3.923483 0.100886 -0.176730 
-3.481682 -35.984196 82.629066 -2.818980 -0.614122 -116.979721 -1.623680 -4.404374 2.272881 -0.719695 -1.984669 1.005097 -0.719696 -1.984669 1.005098 -0.536454 -1.489692 0.751414 1.272028 -12.724265 -3.311776 1.042377 12.539693 -5.771221 10.702441 6.150109 -0.991608 44.034107 -16.223234 -15.863323 -29.099184 -60.338560 86.283717 -46.448176 42.192790 50.592475 -7.685481 5.419571 -6.662697 -40.955331 -9.712401 19.756447 -5.532181 -64.950639 -57.497379 33.150292 20.338440 -74.712134 -0.141174 2.265836 11.806184 -2.674476 -14.147240 2.632794 4.675748 9.179784 6.976134 -1.145078 -1.202067 -0.070307 1.122736 0.773251 -9.670205 3.049218 -4.910428 -5.770282 -3.710569 -1.135141 -5.030080 -4.329756 -0.305343 -0.148245 
-3.593421 -36.239235 82.754028 -2.910564 -0.403114 -116.838992 -1.766958 -4.337954 2.135011 -0.696655 -1.958382 0.950118 -0.696655 -1.958382 0.950118 -0.519396 -1.469876 0.710287 1.243617 -12.813798 -3.266888 1.010377 12.373515 -5.695507 10.703186 6.283037 -1.026515 43.929236 -15.916424 -15.958978 -29.809360 -60.376714 86.783851 -46.301559 42.214623 50.734375 -7.815619 5.541275 -6.698218 -40.810186 -9.752618 19.923602 -6.467095 -65.152498 -56.786288 33.196707 20.216942 -74.495856 -0.267047 2.129825 11.181698 -2.518683 -13.881206 2.385097 4.821156 9.222875 6.971285 -1.248947 -1.182657 -0.042336 1.077447 0.831455 -9.118916 2.828433 -5.179468 -5.271759 -2.436380 -0.520738 -5.060065 -4.420040 -0.571598 -0.079739 
